<?xml version="1.0" standalone="no"?>
<svg viewBox="0 0 200 200" xmlns="http://www.w3.org/2000/svg">
  <path fill="#DBAC44" d="M33.2,-60C44.1,-51.2,54.8,-44.5,62.2,-34.9C69.6,-25.2,73.7,-12.6,76.7,1.7C79.6,16,81.4,32,75.1,43.6C68.8,55.2,54.4,62.3,40.6,68.7C26.7,75.1,13.4,80.8,0.4,80.1C-12.5,79.4,-25,72.2,-38.4,65.5C-51.8,58.8,-66,52.6,-72.1,41.7C-78.1,30.9,-75.9,15.5,-72.4,2C-69,-11.4,-64.2,-22.9,-59.4,-35.9C-54.7,-49,-49.9,-63.6,-40,-73C-30.1,-82.5,-15.1,-86.6,-2,-83.2C11.1,-79.8,22.3,-68.8,33.2,-60Z" transform="translate(100 100)" />
</svg>
